<?xml version="1.0" encoding="utf-8"?>
<!-- Generator: Adobe Illustrator 23.0.2, SVG Export Plug-In . SVG Version: 6.00 Build 0)  -->
<svg version="1.1" id="Layer_1" xmlns="http://www.w3.org/2000/svg" xmlns:xlink="http://www.w3.org/1999/xlink" x="0px" y="0px"
	 width="20px" height="20px" viewBox="0 0 20 20" style="enable-background:new 0 0 20 20;" xml:space="preserve">
<path d="M10,19c5,0,9-4,9-9l0,0c0-5-4-9-9-9l0,0c-5,0-9,4-9,9l0,0C1,15,5,19,10,19L10,19z M10,20C4.5,20,0,15.5,0,10S4.5,0,10,0
	s10,4.5,10,10S15.5,20,10,20z M8.7,8.7l-1.3,4l4-1.3l1.3-4L8.7,8.7z M14.2,5.8l-2.1,6.4l-6.4,2.1l2.1-6.4L14.2,5.8z"/>
</svg>
