<?xml version="1.0" encoding="utf-8"?>
<!-- Generator: Adobe Illustrator 23.0.2, SVG Export Plug-In . SVG Version: 6.00 Build 0)  -->
<svg version="1.1" id="Layer_1" xmlns="http://www.w3.org/2000/svg" xmlns:xlink="http://www.w3.org/1999/xlink" x="0px" y="0px"
	 width="32px" height="32px" viewBox="0 0 32 32" style="enable-background:new 0 0 32 32;" xml:space="preserve">
<style type="text/css">
	.st0{fill-rule:evenodd;clip-rule:evenodd;fill:#121317;}
</style>
<path id="Path_2311" class="st0" d="M16,32C7.2,32,0,24.8,0,16S7.2,0,16,0s16,7.2,16,16S24.8,32,16,32z M16,30c7.7,0,14-6.3,14-14
	S23.7,2,16,2S2,8.3,2,16S8.3,30,16,30z"/>
<g>
	<path d="M14.8,14.4l2.7,1.6l-2.7,1.6V14.4 M12.8,11V21l8.4-5L12.8,11L12.8,11z"/>
</g>
</svg>
