<?xml version="1.0" encoding="utf-8"?>
<!-- Generator: Adobe Illustrator 23.0.2, SVG Export Plug-In . SVG Version: 6.00 Build 0)  -->
<svg version="1.1" id="Layer_1" xmlns="http://www.w3.org/2000/svg" xmlns:xlink="http://www.w3.org/1999/xlink" x="0px" y="0px"
	 width="20.5px" height="11.5px" viewBox="0 0 20.5 11.5" style="enable-background:new 0 0 20.5 11.5;" xml:space="preserve">
<path d="M19.5,1.7l-7.3,7.3c-0.2,0.2-0.5,0.2-0.7,0c0,0,0,0,0,0L7.3,4.8l-6.5,6.5c-0.2,0.2-0.5,0.2-0.7,0c-0.2-0.2-0.2-0.5,0-0.7
	L7,3.8c0.2-0.2,0.5-0.2,0.7,0c0,0,0,0,0,0L11.9,8l6.9-7h-4.3V0h6v6h-1V1.7z"/>
</svg>
